<?xml version="1.0" encoding="UTF-8"?>
<svg xmlns="http://www.w3.org/2000/svg" xmlns:xlink="http://www.w3.org/1999/xlink" viewBox="0 0 48 48" width="48px" height="48px">
<g id="surface32921158">
<path style="fill-rule:nonzero;fill:rgb(100%,100%,100%);fill-opacity:1;stroke-width:10;stroke-linecap:butt;stroke-linejoin:round;stroke:rgb(0%,0%,0%);stroke-opacity:1;stroke-miterlimit:10;" d="M 75.690807 62.83394 L 75.690807 70.8917 L 60.878748 70.8917 L 60.878748 111.165689 L 50.925044 111.165689 L 50.925044 70.8917 L 36.305542 70.8917 L 36.305542 62.83394 Z M 75.690807 62.83394 " transform="matrix(0.263721,0,0,0.263721,1.32,1.32)"/>
<path style="fill-rule:nonzero;fill:rgb(60.784316%,34.901962%,71.372551%);fill-opacity:1;stroke-width:10;stroke-linecap:butt;stroke-linejoin:round;stroke:rgb(0%,0%,0%);stroke-opacity:1;stroke-miterlimit:10;" d="M 86.000001 86.000001 C 86.000001 103.700411 100.871308 114.661335 114.661335 114.661335 C 120.319542 114.661335 127.636699 111.358246 133.783704 106.040717 C 136.435062 103.744848 140.167701 103.40417 143.218985 105.285302 C 145.618539 106.78132 146.922 109.565987 146.922 112.380278 L 146.922 139.752963 C 146.922 147.662603 140.493566 154.076225 132.583927 154.076225 L 39.416074 154.076225 C 31.506435 154.076225 25.078001 147.662603 25.078001 139.752963 L 25.078001 32.247038 C 25.078001 24.337398 31.506435 17.923777 39.416074 17.923777 L 132.583927 17.923777 C 140.493566 17.923777 146.922 24.337398 146.922 32.247038 L 146.922 60.004837 C 146.922 63.041309 145.263049 65.722292 142.567255 67.070189 C 139.664091 68.536583 136.035137 67.899664 133.561523 65.78154 C 127.473766 60.567695 120.245481 57.338666 114.661335 57.338666 C 100.871308 57.338666 86.000001 68.29959 86.000001 86.000001 Z M 86.000001 86.000001 " transform="matrix(0.263721,0,0,0.263721,1.32,1.32)"/>
<path style=" stroke:none;fill-rule:nonzero;fill:rgb(60.784316%,34.901962%,71.372551%);fill-opacity:1;" d="M 31.558594 16.441406 C 33.03125 16.441406 34.9375 17.292969 36.542969 18.667969 C 37.195312 19.226562 38.152344 19.394531 38.917969 19.007812 C 39.628906 18.652344 40.066406 17.945312 40.066406 17.144531 L 40.066406 9.824219 C 40.066406 7.738281 38.371094 6.046875 36.285156 6.046875 L 11.714844 6.046875 C 9.628906 6.046875 7.933594 7.738281 7.933594 9.824219 L 7.933594 38.175781 C 7.933594 40.261719 9.628906 41.953125 11.714844 41.953125 L 36.285156 41.953125 C 38.371094 41.953125 40.066406 40.261719 40.066406 38.175781 L 40.066406 30.957031 C 40.066406 30.214844 39.722656 29.480469 39.089844 29.085938 C 38.285156 28.589844 37.300781 28.679688 36.601562 29.285156 C 34.980469 30.6875 33.050781 31.558594 31.558594 31.558594 C 27.921875 31.558594 24 28.667969 24 24 C 24 19.332031 27.921875 16.441406 31.558594 16.441406 Z M 31.558594 16.441406 "/>
<path style=" stroke:none;fill-rule:nonzero;fill:rgb(100%,100%,100%);fill-opacity:1;" d="M 21.28125 17.890625 L 21.28125 20.015625 L 17.375 20.015625 L 17.375 30.636719 L 14.75 30.636719 L 14.75 20.015625 L 10.894531 20.015625 L 10.894531 17.890625 Z M 21.28125 17.890625 "/>
</g>
</svg>
