<svg width="159" height="56" viewBox="0 0 159 56" fill="none" xmlns="http://www.w3.org/2000/svg">
<g clip-path="url(#clip0_3974_33917)">
<path d="M17.8658 20.8273L12.1749 15.7479L31.1017 15.7474C31.5978 15.7474 31.9999 16.1495 31.9999 16.6456V19.9286C31.9999 20.4247 31.5978 20.8268 31.1017 20.8268L17.8658 20.8273Z" fill="#246DD3"/>
<path d="M22.8061 31.1716V26.0922H29.242C29.7381 26.0922 30.1402 26.4943 30.1402 26.9904V30.2734C30.1402 30.7695 29.7381 31.1716 29.242 31.1716H22.8061Z" fill="#246DD3"/>
<path d="M12.1749 41.7013L17.8658 36.6219H31.1017C31.5978 36.6219 32 37.024 32 37.5201V40.8031C32 41.2992 31.5978 41.7013 31.1017 41.7013H12.1749Z" fill="#246DD3"/>
<path d="M27.3798 28.6216C27.3798 36.1582 21.2506 42.2678 13.6899 42.2678C6.12918 42.2678 0 36.1582 0 28.6216C0 21.0851 6.12918 14.9755 13.6899 14.9755C21.2506 14.9755 27.3798 21.0851 27.3798 28.6216ZM5.22955 28.6216C5.22955 33.2792 9.01738 37.0549 13.6899 37.0549C18.3624 37.0549 22.1503 33.2792 22.1503 28.6216C22.1503 23.964 18.3624 20.1883 13.6899 20.1883C9.01738 20.1883 5.22955 23.964 5.22955 28.6216Z" fill="#2595FF"/>
<path d="M49.54 36V21.1H59.36V23.2H51.9V27.48H58.96V29.58H51.9V33.9H59.36V36H49.54ZM61.6717 31.58V29.58H69.6717V31.58H61.6717ZM72.8798 36V21.1H75.0798L80.6798 28.86H79.5798L85.0798 21.1H87.2798V36H84.9398V23.88L85.8198 24.12L80.1998 31.8H79.9598L74.4598 24.12L75.2398 23.88V36H72.8798ZM95.2203 36.24C94.1403 36.24 93.1803 35.9933 92.3403 35.5C91.5136 34.9933 90.867 34.3133 90.4003 33.46C89.9336 32.5933 89.7003 31.6267 89.7003 30.56C89.7003 29.4667 89.9336 28.5 90.4003 27.66C90.8803 26.82 91.5203 26.16 92.3203 25.68C93.1203 25.1867 94.027 24.94 95.0403 24.94C95.8536 24.94 96.5803 25.08 97.2203 25.36C97.8603 25.64 98.4003 26.0267 98.8403 26.52C99.2803 27 99.6136 27.5533 99.8403 28.18C100.08 28.8067 100.2 29.4733 100.2 30.18C100.2 30.3533 100.194 30.5333 100.18 30.72C100.167 30.9067 100.14 31.08 100.1 31.24H91.4803V29.44H98.8203L97.7403 30.26C97.8736 29.6067 97.827 29.0267 97.6003 28.52C97.387 28 97.0536 27.5933 96.6003 27.3C96.1603 26.9933 95.6403 26.84 95.0403 26.84C94.4403 26.84 93.907 26.9933 93.4403 27.3C92.9736 27.5933 92.6136 28.02 92.3603 28.58C92.107 29.1267 92.007 29.7933 92.0603 30.58C91.9936 31.3133 92.0936 31.9533 92.3603 32.5C92.6403 33.0467 93.027 33.4733 93.5203 33.78C94.027 34.0867 94.6003 34.24 95.2403 34.24C95.8936 34.24 96.447 34.0933 96.9003 33.8C97.367 33.5067 97.7336 33.1267 98.0003 32.66L99.8403 33.56C99.627 34.0667 99.2936 34.5267 98.8403 34.94C98.4003 35.34 97.867 35.66 97.2403 35.9C96.627 36.1267 95.9536 36.24 95.2203 36.24ZM106.406 36.24C105.299 36.24 104.326 35.9667 103.486 35.42C102.659 34.8733 102.079 34.14 101.746 33.22L103.486 32.4C103.779 33.0133 104.179 33.5 104.686 33.86C105.206 34.22 105.779 34.4 106.406 34.4C106.939 34.4 107.373 34.28 107.706 34.04C108.039 33.8 108.206 33.4733 108.206 33.06C108.206 32.7933 108.133 32.58 107.986 32.42C107.839 32.2467 107.653 32.1067 107.426 32C107.213 31.8933 106.993 31.8133 106.766 31.76L105.066 31.28C104.133 31.0133 103.433 30.6133 102.966 30.08C102.513 29.5333 102.286 28.9 102.286 28.18C102.286 27.5267 102.453 26.96 102.786 26.48C103.119 25.9867 103.579 25.6067 104.166 25.34C104.753 25.0733 105.413 24.94 106.146 24.94C107.133 24.94 108.013 25.1867 108.786 25.68C109.559 26.16 110.106 26.8333 110.426 27.7L108.686 28.52C108.473 28 108.133 27.5867 107.666 27.28C107.213 26.9733 106.699 26.82 106.126 26.82C105.633 26.82 105.239 26.94 104.946 27.18C104.653 27.4067 104.506 27.7067 104.506 28.08C104.506 28.3333 104.573 28.5467 104.706 28.72C104.839 28.88 105.013 29.0133 105.226 29.12C105.439 29.2133 105.659 29.2933 105.886 29.36L107.646 29.88C108.539 30.1333 109.226 30.5333 109.706 31.08C110.186 31.6133 110.426 32.2533 110.426 33C110.426 33.64 110.253 34.2067 109.906 34.7C109.573 35.18 109.106 35.56 108.506 35.84C107.906 36.1067 107.206 36.24 106.406 36.24ZM116.64 36.24C115.534 36.24 114.56 35.9667 113.72 35.42C112.894 34.8733 112.314 34.14 111.98 33.22L113.72 32.4C114.014 33.0133 114.414 33.5 114.92 33.86C115.44 34.22 116.014 34.4 116.64 34.4C117.174 34.4 117.607 34.28 117.94 34.04C118.274 33.8 118.44 33.4733 118.44 33.06C118.44 32.7933 118.367 32.58 118.22 32.42C118.074 32.2467 117.887 32.1067 117.66 32C117.447 31.8933 117.227 31.8133 117 31.76L115.3 31.28C114.367 31.0133 113.667 30.6133 113.2 30.08C112.747 29.5333 112.52 28.9 112.52 28.18C112.52 27.5267 112.687 26.96 113.02 26.48C113.354 25.9867 113.814 25.6067 114.4 25.34C114.987 25.0733 115.647 24.94 116.38 24.94C117.367 24.94 118.247 25.1867 119.02 25.68C119.794 26.16 120.34 26.8333 120.66 27.7L118.92 28.52C118.707 28 118.367 27.5867 117.9 27.28C117.447 26.9733 116.934 26.82 116.36 26.82C115.867 26.82 115.474 26.94 115.18 27.18C114.887 27.4067 114.74 27.7067 114.74 28.08C114.74 28.3333 114.807 28.5467 114.94 28.72C115.074 28.88 115.247 29.0133 115.46 29.12C115.674 29.2133 115.894 29.2933 116.12 29.36L117.88 29.88C118.774 30.1333 119.46 30.5333 119.94 31.08C120.42 31.6133 120.66 32.2533 120.66 33C120.66 33.64 120.487 34.2067 120.14 34.7C119.807 35.18 119.34 35.56 118.74 35.84C118.14 36.1067 117.44 36.24 116.64 36.24ZM126.115 36.24C125.381 36.24 124.735 36.1133 124.175 35.86C123.628 35.5933 123.201 35.2333 122.895 34.78C122.588 34.3133 122.435 33.7667 122.435 33.14C122.435 32.5533 122.561 32.0267 122.815 31.56C123.081 31.0933 123.488 30.7 124.035 30.38C124.581 30.06 125.268 29.8333 126.095 29.7L129.855 29.08V30.86L126.535 31.44C125.935 31.5467 125.495 31.74 125.215 32.02C124.935 32.2867 124.795 32.6333 124.795 33.06C124.795 33.4733 124.948 33.8133 125.255 34.08C125.575 34.3333 125.981 34.46 126.475 34.46C127.088 34.46 127.621 34.3267 128.075 34.06C128.541 33.7933 128.901 33.44 129.155 33C129.408 32.5467 129.535 32.0467 129.535 31.5V28.72C129.535 28.1867 129.335 27.7533 128.935 27.42C128.548 27.0733 128.028 26.9 127.375 26.9C126.775 26.9 126.248 27.06 125.795 27.38C125.355 27.6867 125.028 28.0867 124.815 28.58L122.935 27.64C123.135 27.1067 123.461 26.64 123.915 26.24C124.368 25.8267 124.895 25.5067 125.495 25.28C126.108 25.0533 126.755 24.94 127.435 24.94C128.288 24.94 129.041 25.1 129.695 25.42C130.361 25.74 130.875 26.1867 131.235 26.76C131.608 27.32 131.795 27.9733 131.795 28.72V36H129.635V34.04L130.095 34.1C129.841 34.54 129.515 34.92 129.115 35.24C128.728 35.56 128.281 35.8067 127.775 35.98C127.281 36.1533 126.728 36.24 126.115 36.24ZM139.657 40.4C138.871 40.4 138.144 40.2733 137.477 40.02C136.811 39.7667 136.237 39.4133 135.757 38.96C135.277 38.52 134.917 38 134.677 37.4L136.757 36.54C136.944 37.0467 137.284 37.4667 137.777 37.8C138.284 38.1333 138.904 38.3 139.637 38.3C140.211 38.3 140.724 38.1867 141.177 37.96C141.631 37.7467 141.991 37.4267 142.257 37C142.524 36.5867 142.657 36.0867 142.657 35.5V33.06L143.057 33.52C142.684 34.2133 142.164 34.74 141.497 35.1C140.844 35.46 140.104 35.64 139.277 35.64C138.277 35.64 137.377 35.4067 136.577 34.94C135.777 34.4733 135.144 33.8333 134.677 33.02C134.224 32.2067 133.997 31.2933 133.997 30.28C133.997 29.2533 134.224 28.34 134.677 27.54C135.144 26.74 135.771 26.1067 136.557 25.64C137.344 25.1733 138.244 24.94 139.257 24.94C140.084 24.94 140.817 25.12 141.457 25.48C142.111 25.8267 142.644 26.3333 143.057 27L142.757 27.56V25.18H144.897V35.5C144.897 36.4333 144.671 37.2667 144.217 38C143.777 38.7467 143.164 39.3333 142.377 39.76C141.591 40.1867 140.684 40.4 139.657 40.4ZM139.537 33.54C140.137 33.54 140.671 33.4 141.137 33.12C141.604 32.8267 141.971 32.44 142.237 31.96C142.517 31.4667 142.657 30.9133 142.657 30.3C142.657 29.6867 142.517 29.1333 142.237 28.64C141.957 28.1467 141.584 27.76 141.117 27.48C140.651 27.1867 140.124 27.04 139.537 27.04C138.924 27.04 138.377 27.1867 137.897 27.48C137.417 27.76 137.037 28.1467 136.757 28.64C136.491 29.12 136.357 29.6733 136.357 30.3C136.357 30.9 136.491 31.4467 136.757 31.94C137.037 32.4333 137.417 32.8267 137.897 33.12C138.377 33.4 138.924 33.54 139.537 33.54ZM152.623 36.24C151.543 36.24 150.583 35.9933 149.743 35.5C148.916 34.9933 148.269 34.3133 147.803 33.46C147.336 32.5933 147.103 31.6267 147.103 30.56C147.103 29.4667 147.336 28.5 147.803 27.66C148.283 26.82 148.923 26.16 149.723 25.68C150.523 25.1867 151.429 24.94 152.443 24.94C153.256 24.94 153.983 25.08 154.623 25.36C155.263 25.64 155.803 26.0267 156.243 26.52C156.683 27 157.016 27.5533 157.243 28.18C157.483 28.8067 157.603 29.4733 157.603 30.18C157.603 30.3533 157.596 30.5333 157.583 30.72C157.569 30.9067 157.543 31.08 157.503 31.24H148.883V29.44H156.223L155.143 30.26C155.276 29.6067 155.229 29.0267 155.003 28.52C154.789 28 154.456 27.5933 154.003 27.3C153.563 26.9933 153.043 26.84 152.443 26.84C151.843 26.84 151.309 26.9933 150.843 27.3C150.376 27.5933 150.016 28.02 149.763 28.58C149.509 29.1267 149.409 29.7933 149.463 30.58C149.396 31.3133 149.496 31.9533 149.763 32.5C150.043 33.0467 150.429 33.4733 150.923 33.78C151.429 34.0867 152.003 34.24 152.643 34.24C153.296 34.24 153.849 34.0933 154.303 33.8C154.769 33.5067 155.136 33.1267 155.403 32.66L157.243 33.56C157.029 34.0667 156.696 34.5267 156.243 34.94C155.803 35.34 155.269 35.66 154.643 35.9C154.029 36.1267 153.356 36.24 152.623 36.24Z" fill="#0E1114"/>
</g>
<defs>
<clipPath id="clip0_3974_33917">
<rect width="159" height="56" fill="white"/>
</clipPath>
</defs>
</svg>
