<svg width="20" height="20" viewBox="0 0 20 20" fill="none" xmlns="http://www.w3.org/2000/svg">
<path fill-rule="evenodd" clip-rule="evenodd" d="M11.5648 2.7712C12.1592 2.23258 12.938 1.94318 13.74 1.96292C14.5419 1.98267 15.3055 2.31004 15.8727 2.87727C16.44 3.44449 16.7673 4.20812 16.7871 5.01006C16.8068 5.81199 16.5174 6.59081 15.9788 7.18526C15.9729 7.19178 15.9669 7.19818 15.9607 7.20444L8.20287 15.0716C8.19465 15.08 8.18619 15.0881 8.1775 15.0959C7.82083 15.4191 7.35354 15.5928 6.87238 15.5809C6.39122 15.5691 5.93304 15.3726 5.59271 15.0323C5.25237 14.692 5.05595 14.2338 5.0441 13.7526C5.03225 13.2715 5.20589 12.8042 5.52907 12.4475C5.53479 12.4412 5.54064 12.435 5.54661 12.4289L12.0544 5.81174C12.2965 5.56563 12.6922 5.56234 12.9383 5.80437C13.1844 6.04641 13.1877 6.44212 12.9456 6.68822L6.44834 13.2947C6.34513 13.4126 6.28986 13.565 6.29372 13.7219C6.29767 13.8823 6.36315 14.035 6.47659 14.1484C6.59004 14.2619 6.74276 14.3273 6.90315 14.3313C7.05868 14.3351 7.20986 14.2808 7.32729 14.1793L15.0607 6.33684C15.3786 5.98134 15.5492 5.5179 15.5375 5.04082C15.5256 4.55966 15.3292 4.10149 14.9889 3.76115C14.6485 3.42082 14.1904 3.22439 13.7092 3.21254C13.2335 3.20083 12.7713 3.37043 12.4162 3.68661L4.66855 11.5435C4.08335 12.1287 3.75458 12.9224 3.75458 13.75C3.75458 14.5776 4.08334 15.3713 4.66854 15.9565C5.25374 16.5417 6.04744 16.8704 6.87503 16.8704C7.70263 16.8704 8.49633 16.5417 9.08153 15.9565L15.4961 9.5575C15.7405 9.31372 16.1362 9.3142 16.38 9.55858C16.6238 9.80295 16.6233 10.1987 16.3789 10.4425L9.96541 16.8404C9.14579 17.66 8.03415 18.1204 6.87503 18.1204C5.71592 18.1204 4.60427 17.66 3.78465 16.8404C2.96504 16.0207 2.50458 14.9091 2.50458 13.75C2.50458 12.5916 2.96443 11.4807 3.78304 10.6612L11.5394 2.79552C11.5476 2.78718 11.5561 2.77907 11.5648 2.7712Z" fill="#0E1114"/>
</svg>
