<svg width="18" height="19" viewBox="0 0 18 19" fill="none" xmlns="http://www.w3.org/2000/svg">
<path d="M13.8604 12.4492C9.21094 12.4492 6.31934 9.66309 6.31934 5.1543C6.31934 3.88867 6.53027 2.74609 6.85547 2.12207C7.00488 1.83203 7.04883 1.65625 7.04883 1.43652C7.04883 1.06738 6.74121 0.680664 6.28418 0.680664C6.16992 0.680664 5.96777 0.71582 5.68652 0.821289C2.39062 2.16602 0.0966797 5.60254 0.0966797 9.32031C0.0966797 14.6641 3.99023 18.5664 9.33398 18.5664C13.1484 18.5664 16.2949 16.5273 17.7363 13.2227C17.8594 12.9502 17.8945 12.7217 17.8945 12.5811C17.8945 12.1328 17.5518 11.8516 17.1914 11.8516C17.0068 11.8516 16.8398 11.8779 16.585 11.9922C15.9082 12.2734 14.8711 12.4492 13.8604 12.4492ZM1.81934 9.26758C1.81934 6.78906 3.05859 4.38965 5.08008 3.02734C4.84277 3.73047 4.71973 4.5127 4.71973 5.36523C4.71973 10.7705 8.04199 14.0225 13.5703 14.0225C14.3086 14.0225 14.9502 13.9346 15.5566 13.7236C14.2734 15.6748 11.9268 16.8525 9.38672 16.8525C5.00977 16.8525 1.81934 13.6533 1.81934 9.26758Z" fill="#1C1C1E"/>
</svg>
