<svg width="20" height="21" viewBox="0 0 20 21" fill="none" xmlns="http://www.w3.org/2000/svg">
<path d="M10.8965 1.68945C10.8965 1.20605 10.4834 0.792969 10 0.792969C9.5166 0.792969 9.1123 1.20605 9.1123 1.68945V3.47363C9.1123 3.95703 9.5166 4.36133 10 4.36133C10.4834 4.36133 10.8965 3.95703 10.8965 3.47363V1.68945ZM14.4121 4.95898C14.0693 5.30176 14.0693 5.87305 14.4209 6.21582C14.7549 6.55859 15.335 6.55859 15.6777 6.20703L16.9434 4.94141C17.2861 4.60742 17.2861 4.01855 16.9434 3.67578C16.6006 3.3418 16.0293 3.3418 15.6865 3.68457L14.4121 4.95898ZM4.32227 6.20703C4.65625 6.55859 5.23633 6.55859 5.5791 6.21582C5.92188 5.88184 5.92188 5.29297 5.58789 4.95898L4.32227 3.68457C3.98828 3.35059 3.4082 3.3418 3.06543 3.67578C2.72266 4.01855 2.72266 4.60742 3.05664 4.93262L4.32227 6.20703ZM10 5.9873C7.46875 5.9873 5.36816 8.0791 5.36816 10.6191C5.36816 13.1592 7.46875 15.251 10 15.251C12.5312 15.251 14.623 13.1592 14.623 10.6191C14.623 8.0791 12.5312 5.9873 10 5.9873ZM10 7.64844C11.6172 7.64844 12.9707 8.99316 12.9707 10.6191C12.9707 12.2451 11.6172 13.5898 10 13.5898C8.37402 13.5898 7.02051 12.2451 7.02051 10.6191C7.02051 8.99316 8.37402 7.64844 10 7.64844ZM18.9209 11.5156C19.4043 11.5156 19.8086 11.1025 19.8086 10.6191C19.8086 10.1357 19.4043 9.73145 18.9209 9.73145H17.1367C16.6533 9.73145 16.249 10.1357 16.249 10.6191C16.249 11.1025 16.6533 11.5156 17.1367 11.5156H18.9209ZM1.08789 9.73145C0.595703 9.73145 0.191406 10.1357 0.191406 10.6191C0.191406 11.1025 0.595703 11.5156 1.08789 11.5156H2.86328C3.34668 11.5156 3.75977 11.1025 3.75977 10.6191C3.75977 10.1357 3.34668 9.73145 2.86328 9.73145H1.08789ZM15.6689 15.0312C15.3262 14.6885 14.7549 14.6973 14.4121 15.04C14.0693 15.374 14.0693 15.9453 14.4209 16.2969L15.6953 17.5625C16.0293 17.9053 16.6094 17.8965 16.9521 17.5537C17.2861 17.2109 17.2861 16.6396 16.9434 16.2969L15.6689 15.0312ZM3.05664 16.2881C2.71387 16.6309 2.70508 17.2109 3.03906 17.5449C3.38184 17.8877 3.9707 17.8965 4.30469 17.5625L5.5791 16.2969C5.92188 15.9541 5.92188 15.374 5.58789 15.04C5.24512 14.6973 4.66504 14.6973 4.32227 15.0312L3.05664 16.2881ZM10.8965 17.7646C10.8965 17.2812 10.4834 16.877 10 16.877C9.5166 16.877 9.1123 17.2812 9.1123 17.7646V19.5488C9.1123 20.0322 9.5166 20.4453 10 20.4453C10.4834 20.4453 10.8965 20.0322 10.8965 19.5488V17.7646Z" fill="#1C1C1E"/>
</svg>
